<svg width="55" height="49" fill="none" xmlns="http://www.w3.org/2000/svg"><g clip-path="url(#clip0_73_82)" stroke="#000"><path d="M27.5 5L49 46H6L27.5 5z" stroke-width="3"/><path d="M27.5 0L55 49H0L27.5 0z"/><path d="M27.667 25.005c3.834.08 7.243 1.114 9.654 2.674 2.425 1.568 3.72 3.575 3.678 5.605-.042 2.031-1.42 3.982-3.909 5.447-2.473 1.456-5.923 2.345-9.757 2.264-3.834-.08-7.243-1.114-9.654-2.673-2.425-1.569-3.72-3.576-3.678-5.606.042-2.031 1.42-3.981 3.909-5.446 2.473-1.457 5.922-2.346 9.757-2.265z" stroke-width="3"/></g><defs><clipPath id="clip0_73_82"><path fill="#fff" d="M0 0h55v49H0z"/></clipPath></defs></svg>