<svg xmlns="http://www.w3.org/2000/svg" viewBox="0 0 26 26">
  <path d="M13 0.1875C5.925781 0.1875 0.1875 5.925781 0.1875 13C0.1875 20.074219 5.925781 25.8125 13 25.8125C20.074219 25.8125 25.8125 20.074219 25.8125 13C25.8125 5.925781 20.074219 0.1875 13 0.1875 Z M 19.734375 9.035156L12.863281 19.167969C12.660156 19.46875 12.335938 19.671875 12.015625 19.671875C11.695313 19.671875 11.34375 19.496094 11.117188 19.273438L7.085938 15.238281C6.8125 14.964844 6.8125 14.515625 7.085938 14.242188L8.082031 13.246094C8.355469 12.972656 8.804688 12.972656 9.074219 13.246094L11.699219 15.867188L17.402344 7.453125C17.621094 7.132813 18.0625 7.050781 18.382813 7.265625L19.550781 8.058594C19.867188 8.273438 19.953125 8.714844 19.734375 9.035156Z" fill="#FFFFFF" />
</svg>